HIERARCHY
ROOT Hips
{
	OFFSET 0.000000 0.000000 0.000000
	CHANNELS 6 Xposition Yposition Zposition Zrotation Yrotation Xrotation 
	JOINT LHipJoint
	{
		OFFSET 0.000000 0.000000 0.000000
		CHANNELS 3 Zrotation Yrotation Xrotation
		JOINT LeftUpLeg
		{
			OFFSET 1.363060 -1.794630 0.839290
			CHANNELS 3 Zrotation Yrotation Xrotation
			JOINT LeftLeg
			{
				OFFSET 2.448110 -6.726130 0.000000
				CHANNELS 3 Zrotation Yrotation Xrotation
				JOINT LeftFoot
				{
					OFFSET 2.562200 -7.039590 0.000000
					CHANNELS 3 Zrotation Yrotation Xrotation
					JOINT LeftToeBase
					{
						OFFSET 0.157640 -0.433110 2.322550
						CHANNELS 3 Zrotation Yrotation Xrotation
						End Site
						{
							OFFSET 0.000000 0.000000 0.000000
						}
					}
				}
			}
		}
	}
	JOINT RHipJoint
	{
		OFFSET 0.000000 0.000000 0.000000
		CHANNELS 3 Zrotation Yrotation Xrotation
		JOINT RightUpLeg
		{
			OFFSET -1.305520 -1.794630 0.839290
			CHANNELS 3 Zrotation Yrotation Xrotation
			JOINT RightLeg
			{
				OFFSET -2.542530 -6.985550 0.000000
				CHANNELS 3 Zrotation Yrotation Xrotation
				JOINT RightFoot
				{
					OFFSET -2.568260 -7.056230 0.000000
					CHANNELS 3 Zrotation Yrotation Xrotation
					JOINT RightToeBase
					{
						OFFSET -0.164730 -0.452590 2.363150
						CHANNELS 3 Zrotation Yrotation Xrotation
						End Site
						{
							OFFSET 0.000000 0.000000 0.000000
						}
					}
				}
			}
		}
	}
	JOINT LowerBack
	{
		OFFSET 0.000000 0.000000 0.000000
		CHANNELS 3 Zrotation Yrotation Xrotation
		JOINT Spine
		{
			OFFSET 0.028270 2.035590 -0.193380
			CHANNELS 3 Zrotation Yrotation Xrotation
			JOINT Spine1
			{
				OFFSET 0.056720 2.048850 -0.042750
				CHANNELS 3 Zrotation Yrotation Xrotation
				JOINT Neck
				{
					OFFSET 0.000000 0.000000 0.000000
					CHANNELS 3 Zrotation Yrotation Xrotation
					JOINT Neck1
					{
						OFFSET -0.054170 1.746240 0.172020
						CHANNELS 3 Zrotation Yrotation Xrotation
						JOINT Head
						{
							OFFSET 0.104070 1.761360 -0.123970
							CHANNELS 3 Zrotation Yrotation Xrotation
							End Site
							{
								OFFSET 0.000000 0.000000 0.000000
							}
						}
					}
				}
				JOINT LeftShoulder
				{
					OFFSET 0.000000 0.000000 0.000000
					CHANNELS 3 Zrotation Yrotation Xrotation
					JOINT LeftArm
					{
						OFFSET 3.362410 1.200890 -0.311210
						CHANNELS 3 Zrotation Yrotation Xrotation
						JOINT LeftForeArm
						{
							OFFSET 4.983000 -0.000000 -0.000000
							CHANNELS 3 Zrotation Yrotation Xrotation
							JOINT LeftHand
							{
								OFFSET 3.483560 -0.000000 -0.000000
								CHANNELS 3 Zrotation Yrotation Xrotation
								JOINT LeftFingerBase
								{
									OFFSET 0.000000 0.000000 0.000000
									CHANNELS 3 Zrotation Yrotation Xrotation
									JOINT LeftHandIndex1
									{
										OFFSET 0.715260 -0.000000 -0.000000
										CHANNELS 3 Zrotation Yrotation Xrotation
										End Site
										{
											OFFSET 0.000000 0.000000 0.000000
										}
									}
								}
								JOINT LThumb
								{
									OFFSET 0.000000 0.000000 0.000000
									CHANNELS 3 Zrotation Yrotation Xrotation
									End Site
									{
										OFFSET 0.000000 0.000000 0.000000
									}
								}
							}
						}
					}
				}
				JOINT RightShoulder
				{
					OFFSET 0.000000 0.000000 0.000000
					CHANNELS 3 Zrotation Yrotation Xrotation
					JOINT RightArm
					{
						OFFSET -3.136600 1.374050 -0.404650
						CHANNELS 3 Zrotation Yrotation Xrotation
						JOINT RightForeArm
						{
							OFFSET -5.241900 -0.000000 -0.000000
							CHANNELS 3 Zrotation Yrotation Xrotation
							JOINT RightHand
							{
								OFFSET -3.444170 -0.000000 -0.000000
								CHANNELS 3 Zrotation Yrotation Xrotation
								JOINT RightFingerBase
								{
									OFFSET 0.000000 0.000000 0.000000
									CHANNELS 3 Zrotation Yrotation Xrotation
									JOINT RightHandIndex1
									{
										OFFSET -0.622530 -0.000000 -0.000000
										CHANNELS 3 Zrotation Yrotation Xrotation
										End Site
										{
											OFFSET 0.000000 0.000000 0.000000
										}
									}
								}
								JOINT RThumb
								{
									OFFSET 0.000000 0.000000 0.000000
									CHANNELS 3 Zrotation Yrotation Xrotation
									End Site
									{
										OFFSET 0.000000 0.000000 0.000000
									}
								}
							}
						}
					}
				}
			}
		}
	}
}
MOTION
Frames: 8
Frame Time: 0.008333
6.368174 26.037043 -7.146637 -169.000930 -41.478762 173.290057 -7.013864 -10.593789 -6.778635 -5.153606 4.991918 -45.745975 0.543764 12.380879 31.647673 6.153447 -4.623884 47.685823 0.460300 -4.352000 -12.069000 5.877262 6.804221 -4.551993 4.853989 -9.223929 -39.859758 -4.893546 -11.633583 28.638358 5.719379 -27.014501 35.077508 -1.152100 6.815000 -19.168400 5.515683 1.483690 37.660437 0.582295 2.893614 -2.709725 2.240212 0.727279 -2.731228 -7.849028 -7.693111 -4.449332 5.798827 -9.829836 6.586701 2.716800 -5.130000 6.218300 -3.045273 0.811266 0.923707 -24.471071 23.873222 -2.573452 12.813380 -27.818532 -14.387847 -3.647066 -4.215217 -14.595357 20.023585 -4.453353 -0.519400 -7.125000 0.000000 0.000000 -1.453600 28.735700 0.575900 1.242597 0.233958 1.246206 18.934811 -9.095211 15.117566 -30.211303 37.936345 -27.190760 2.988711 3.874699 -2.504524 -22.425736 0.328596 1.716700 7.125000 0.000000 0.000000 0.769200 -33.942500 0.208600 
6.195406 25.759228 -7.626052 -169.217519 -41.430792 173.207732 -7.672954 -10.483714 -6.515653 -4.265726 4.805914 -43.748155 0.368466 11.903381 29.894629 5.980942 -2.336118 48.681687 0.475200 -4.421200 -12.264700 6.408388 6.675923 -4.418510 4.290711 -9.248243 -38.691440 -4.639917 -11.326485 27.217332 5.354380 -27.721459 36.814890 -1.115600 6.709800 -18.858600 5.340771 1.669569 36.749118 0.550676 3.062559 -2.725238 2.260786 0.863926 -2.318239 -7.866318 -7.768721 -4.337602 5.754874 -9.955288 6.714079 2.700000 -5.207100 6.264000 -2.880147 1.321910 1.117064 -23.166853 24.658465 -0.698409 12.794011 -27.926955 -14.623141 -3.711739 -4.208236 -13.560411 19.974112 -4.622070 -0.565400 -7.125000 0.000000 0.000000 -1.487300 28.623200 0.593200 1.045491 -0.209914 1.336924 17.621160 -9.935247 15.867747 -31.442890 38.607260 -29.022195 2.915213 4.062398 -2.873190 -22.157883 0.789304 1.561400 7.125000 0.000000 0.000000 1.004300 -33.622500 0.280200 
6.018615 25.469568 -8.110384 -169.420890 -41.366519 173.074615 -8.350740 -10.297630 -6.202410 -3.429169 4.597372 -41.783172 0.264944 11.480274 28.333556 5.811655 -0.121418 49.692375 0.470200 -4.398200 -12.199700 6.980151 6.509119 -4.249794 3.703266 -9.214977 -37.463222 -4.376829 -11.025377 25.801387 4.931980 -28.433423 38.568912 -1.074100 6.588200 -18.500800 5.182764 1.864226 35.838386 0.515408 3.253840 -2.736398 2.251580 1.008201 -1.918919 -7.861618 -7.855465 -4.231318 5.718313 -10.100728 6.855236 2.682200 -5.292600 6.317400 -2.673661 1.810208 1.347472 -22.060038 25.401509 1.334395 12.993020 -28.209597 -15.014514 -3.742556 -4.174713 -12.474385 19.899522 -4.835860 -0.636000 -7.125000 0.000000 0.000000 -1.573800 28.447500 0.634300 0.812387 -0.638322 1.410353 16.503769 -10.778021 16.527965 -32.788790 39.348096 -31.001241 2.843516 4.231094 -3.135816 -21.870333 1.307602 1.375000 7.125000 0.000000 0.000000 1.256100 -33.225400 0.362600 
5.838583 25.167726 -8.599857 -169.610848 -41.298148 172.905765 -9.042786 -10.044349 -5.841002 -2.635556 4.360386 -39.856571 0.190507 11.089356 26.917340 5.695992 1.885864 50.774556 0.435000 -4.232300 -11.731300 7.590763 6.302707 -4.046388 3.092294 -9.121433 -36.182964 -4.108505 -10.730825 24.386958 4.451654 -29.187833 40.359334 -1.030100 6.455900 -18.113200 5.029365 2.057456 34.915994 0.481541 3.449060 -2.741892 2.236987 1.150662 -1.531909 -7.869058 -7.941929 -4.143121 5.694361 -10.246770 7.012421 2.671100 -5.378000 6.381600 -2.429012 2.265978 1.609235 -21.199557 26.143785 3.428700 13.419463 -28.679458 -15.577965 -3.732899 -4.129322 -11.453189 19.798609 -5.084944 -0.723800 -7.125000 0.000000 0.000000 -1.710500 28.223800 0.698500 0.548672 -1.038995 1.459547 15.584488 -11.596205 17.061646 -34.229136 40.157114 -33.098281 2.779143 4.376267 -3.218548 -21.564317 1.860210 1.169500 7.125000 0.000000 0.000000 1.525600 -32.775500 0.457000 
5.655757 24.853369 -9.094470 -169.804957 -41.232322 172.734925 -9.729472 -9.736355 -5.434521 -1.891492 4.074776 -38.002627 0.114992 10.725525 25.665996 5.675418 3.515357 51.907301 0.366200 -3.887000 -10.759100 8.216834 6.061473 -3.815125 2.449414 -8.930829 -34.874758 -3.848820 -10.458809 23.036272 3.925729 -29.964419 42.126417 -0.982500 6.309500 -17.685200 4.862490 2.248122 33.966487 0.449996 3.640763 -2.742167 2.224785 1.288939 -1.164995 -7.900442 -8.025900 -4.071525 5.685270 -10.388909 7.183268 2.669900 -5.461600 6.455000 -2.155227 2.678676 1.891449 -20.613214 26.906168 5.470217 14.062673 -29.326460 -16.309979 -3.683690 -4.080718 -10.555543 19.670755 -5.365459 -0.825500 -7.125000 0.000000 0.000000 -1.892800 27.958600 0.784900 0.260751 -1.400064 1.479566 14.869758 -12.382856 17.426703 -35.757308 41.042294 -35.304946 2.724908 4.502260 -3.186179 -21.233096 2.435433 0.951900 7.125000 0.000000 0.000000 1.813000 -32.286600 0.564500 
5.470696 24.524930 -9.594448 -170.004013 -41.173407 172.586902 -10.392502 -9.392553 -4.993127 -1.204798 3.741038 -36.252256 0.017258 10.380443 24.576362 5.768012 4.683322 53.080116 0.265600 -3.315600 -9.158700 8.838297 5.796538 -3.561715 1.788738 -8.635950 -33.569971 -3.597461 -10.212757 21.786951 3.327931 -30.684150 43.880025 -0.932300 6.150600 -17.222100 4.674067 2.433601 32.968377 0.422139 3.822352 -2.737604 2.220812 1.421393 -0.816826 -7.960101 -8.102785 -4.018632 5.689113 -10.520664 7.364630 2.677300 -5.540000 6.533800 -1.858096 3.041875 2.187715 -20.314453 27.717491 7.374861 14.918380 -30.147282 -17.216106 -3.601713 -4.035556 -9.840532 19.524843 -5.689978 -0.945800 -7.125000 0.000000 0.000000 -2.104400 27.638500 0.888600 -0.043806 -1.715015 1.464404 14.362571 -13.124590 17.603795 -37.359689 42.006453 -37.599649 2.681555 4.614456 -3.035671 -20.871796 2.978314 0.749600 7.125000 0.000000 0.000000 2.124100 -31.823500 0.685200 
5.283623 24.182076 -10.100013 -170.222672 -41.140716 172.491423 -11.019826 -9.031916 -4.521887 -0.587327 3.348733 -34.620028 -0.122493 10.046283 23.656400 5.973281 5.302210 54.237140 0.155100 -2.537900 -6.994800 9.433568 5.519429 -3.293830 1.109481 -8.225813 -32.285621 -3.355430 -9.994540 20.672625 2.649625 -31.269992 45.606595 -0.871900 5.953500 -16.649600 4.451570 2.616591 31.899524 0.396642 3.993205 -2.728762 2.232539 1.548162 -0.482600 -8.057354 -8.179439 -3.998518 5.709638 -10.647464 7.556462 2.698700 -5.616000 6.626200 -1.550092 3.349309 2.483677 -20.305234 28.570750 9.063658 15.967012 -31.120939 -18.283851 -3.497521 -3.999872 -9.310183 19.377922 -6.041565 -1.075500 -7.125000 0.000000 0.000000 -2.323100 27.286700 1.000300 -0.358991 -1.976670 1.412094 14.075281 -13.833563 17.550114 -39.039915 43.062660 -39.989833 2.648407 4.718339 -2.856501 -20.471544 3.472424 0.570300 7.125000 0.000000 0.000000 2.461100 -31.404800 0.818800 
5.095657 23.824470 -10.611277 -170.447000 -41.147539 172.448876 -11.598510 -8.669069 -4.034270 -0.042571 2.899978 -33.114493 -0.298943 9.727144 22.910030 6.249900 5.424971 55.298020 0.065500 -1.650600 -4.541100 9.987220 5.245176 -3.010694 0.436799 -7.705825 -31.043379 -3.116250 -9.802199 19.730721 1.873579 -31.589827 47.301273 -0.806700 5.732000 -16.008700 4.195622 2.791389 30.751970 0.374166 4.147976 -2.716829 2.265251 1.666075 -0.167749 -8.182007 -8.254581 -4.002497 5.742475 -10.768502 7.751321 2.729900 -5.688600 6.724400 -1.237825 3.595441 2.769188 -20.590041 29.474896 10.459969 17.179930 -32.226255 -19.496541 -3.382767 -3.973647 -8.960827 19.236376 -6.425142 -1.217300 -7.125000 0.000000 0.000000 -2.535100 26.897100 1.115000 -0.678397 -2.182205 1.321220 14.021862 -14.512085 17.262983 -40.812715 44.223694 -42.477455 2.628629 4.813020 -2.666819 -20.063986 3.900213 0.421200 7.125000 0.000000 0.000000 2.795700 -31.048200 0.954300 
